<svg width="64" height="64" viewBox="0 0 64 64" fill="none" xmlns="http://www.w3.org/2000/svg">
<g clip-path="url(#clip0_777_2089)">
<path fill-rule="evenodd" clip-rule="evenodd" d="M57.9999 0H6C2.7 0 0 2.7 0 6V58C0 61.3 2.7 64 6 64H57.9999C61.2999 64 63.9999 61.3 63.9999 58V6C63.9999 2.7 61.2999 0 57.9999 0ZM23.9991 51.9999H16.0006V23.9992H23.9991V51.9999ZM19.9987 19.9987C17.7877 19.9987 15.9994 18.2105 15.9994 15.9994C15.9994 13.7872 17.7876 11.999 19.9987 11.999C22.2109 11.999 23.9991 13.7872 23.9991 15.9994C23.9991 18.2104 22.2109 19.9987 19.9987 19.9987ZM51.9999 51.9999H44.0013V36.0005C44.0013 33.7883 42.212 32.0001 40.0009 32.0001C37.7887 32.0001 36.0005 33.7883 36.0005 36.0005V51.9999H27.9995V23.9992H36.0005V28.9634C37.6481 26.698 40.1757 23.9992 42.9998 23.9992C47.9758 23.9992 51.9998 28.4756 51.9998 33.9997V51.9999H51.9999Z" fill="#F5F5F5"/>
</g>
<defs>
<clipPath id="clip0_777_2089">
<rect width="64" height="64" fill="white"/>
</clipPath>
</defs>
</svg>
