<svg width="34" height="32" viewBox="0 0 34 32" fill="none" xmlns="http://www.w3.org/2000/svg">
<path fill-rule="evenodd" clip-rule="evenodd" d="M12.1438 9.71432H18.862V13.1585H18.9592C19.8948 11.48 22.1825 9.71432 25.594 9.71432C32.688 9.71432 34 14.1291 34 19.8722V31.5712H26.9938V21.2005C26.9938 18.7284 26.9423 15.5459 23.3507 15.5459C19.7027 15.5459 19.1436 18.2371 19.1436 21.0205V31.5712H12.1437V9.71432H12.1438ZM7.28666 3.64304C7.28666 5.65405 5.65463 7.28607 3.64362 7.28607C1.63261 7.28607 0 5.65405 0 3.64304C0 1.63203 1.63261 0 3.64362 0C5.65463 0 7.28666 1.63203 7.28666 3.64304ZM0 9.71432H7.28666V31.5712H0V9.71432Z" fill="white"/>
</svg>
